<svg xmlns="http://www.w3.org/2000/svg" viewBox="0 0 363.69 41.09"><title>Logo</title><g id="Слой_2" data-name="Слой 2"><g id="Слой_1-2" data-name="Слой 1"><path d="M23.38,7.44h9.89a1.31,1.31,0,0,1,1.3,1.3v31a1.31,1.31,0,0,1-1.3,1.3H23.38a1.31,1.31,0,0,1-1.3-1.3V29.52h-9.6V39.74a1.31,1.31,0,0,1-1.3,1.3H1.3a1.29,1.29,0,0,1-.91-.36A1.22,1.22,0,0,1,0,39.74v-31a1.24,1.24,0,0,1,.38-.91,1.25,1.25,0,0,1,.91-.38h9.89a1.31,1.31,0,0,1,1.3,1.3v9.84h9.6V8.74a1.31,1.31,0,0,1,1.3-1.3Z"/><path d="M54.48,31.68H73.63a1.31,1.31,0,0,1,1.3,1.3v6.77a1.31,1.31,0,0,1-1.3,1.3H43.3a1.31,1.31,0,0,1-1.3-1.3v-31a1.31,1.31,0,0,1,1.3-1.3H73.15a1.31,1.31,0,0,1,1.3,1.3V15.5a1.31,1.31,0,0,1-1.3,1.3H54.48v3h16a1.31,1.31,0,0,1,1.3,1.3v6.24a1.31,1.31,0,0,1-1.3,1.3h-16Z"/><path d="M83.57,7.44H92.5a1.31,1.31,0,0,1,1.3,1.3V22.85L104.25,8.4a2.24,2.24,0,0,1,1.87-1h7.78a1.31,1.31,0,0,1,1.3,1.3v31a1.31,1.31,0,0,1-1.3,1.3H105a1.31,1.31,0,0,1-1.3-1.3V26.69L93.21,40a2.33,2.33,0,0,1-1.92,1H83.57a1.31,1.31,0,0,1-1.3-1.3v-31a1.31,1.31,0,0,1,1.3-1.3ZM102,0h4.75q.91,0,.91.62a4.57,4.57,0,0,1-2.21,3.82A10.84,10.84,0,0,1,99.19,6a10.84,10.84,0,0,1-6.31-1.56A4.57,4.57,0,0,1,90.67.62q0-.62.91-.62h4.75a.85.85,0,0,1,.91.62q.29,1.2,1.82,1.2a2,2,0,0,0,2.06-1.2A1,1,0,0,1,102,0Z"/><path d="M126.62,7.44h18q6.82,0,10.8,3.31a10.55,10.55,0,0,1,4,8.5A10.57,10.57,0,0,1,156,27.48q-3.36,3-11.42,3h-6.34v9.22a1.31,1.31,0,0,1-1.3,1.3H126.62a1.31,1.31,0,0,1-1.3-1.3v-31a1.31,1.31,0,0,1,1.3-1.3Zm11.66,8.93v5.28h6.1a2.36,2.36,0,0,0,2.5-2.54,2.88,2.88,0,0,0-.67-2,2.3,2.3,0,0,0-1.82-.77Z"/><path d="M198.33,21.39v5.71a13.12,13.12,0,0,1-2.4,8.05,13,13,0,0,1-6.29,4.59,31.66,31.66,0,0,1-18.34,0A13,13,0,0,1,165,35.15a13.28,13.28,0,0,1-2.4-8.14V21.48q0-7.07,5-10.58t12.89-3.51q7.92,0,12.89,3.51T198.33,21.39Zm-22.75-.78v7.26a3.37,3.37,0,0,0,1.32,2.86,5.79,5.79,0,0,0,3.58,1,5.7,5.7,0,0,0,3.58-1,3.43,3.43,0,0,0,1.32-2.88V20.66a3.43,3.43,0,0,0-1.32-2.88,5.7,5.7,0,0,0-3.58-1,5.79,5.79,0,0,0-3.58,1A3.37,3.37,0,0,0,175.58,20.61Z"/><path d="M204,41.09a1.32,1.32,0,0,1-.94-.38,1.21,1.21,0,0,1-.41-.91V32.11a1.31,1.31,0,0,1,1.3-1.3,3.6,3.6,0,0,0,2.78-.87,4.11,4.11,0,0,0,.77-2.76V8.71a1.21,1.21,0,0,1,.38-.9,1.26,1.26,0,0,1,.91-.38h27.26a1.31,1.31,0,0,1,1.3,1.3v31a1.31,1.31,0,0,1-1.3,1.3h-8.93a1.31,1.31,0,0,1-1.3-1.3v-22H219v9.47q0,7-4,10.42T204,41.09Z"/><path d="M246.77,7.44h8.93a1.31,1.31,0,0,1,1.3,1.3V22.85L267.45,8.4a2.24,2.24,0,0,1,1.87-1h7.78a1.31,1.31,0,0,1,1.3,1.3v31a1.31,1.31,0,0,1-1.3,1.3h-8.93a1.31,1.31,0,0,1-1.3-1.3V26.69L256.41,40a2.33,2.33,0,0,1-1.92,1h-7.73a1.31,1.31,0,0,1-1.3-1.3v-31a1.31,1.31,0,0,1,1.3-1.3Z"/><path d="M309,7.44h9.89a1.31,1.31,0,0,1,1.3,1.3v31a1.31,1.31,0,0,1-1.3,1.3H309a1.31,1.31,0,0,1-1.3-1.3V29.52h-9.6V39.74a1.31,1.31,0,0,1-1.3,1.3h-9.89a1.29,1.29,0,0,1-.91-.36,1.22,1.22,0,0,1-.38-.94v-31a1.31,1.31,0,0,1,1.3-1.3h9.89a1.31,1.31,0,0,1,1.3,1.3v9.84h9.6V8.74a1.31,1.31,0,0,1,1.3-1.3Z"/><path d="M363.5,39.36a1.19,1.19,0,0,1,.19.67,1,1,0,0,1-.31.7,1,1,0,0,1-.74.31H350.25a2.1,2.1,0,0,1-1.73-.77L340.17,30v9.79a1.31,1.31,0,0,1-1.3,1.3H329a1.31,1.31,0,0,1-1.3-1.3v-31a1.31,1.31,0,0,1,1.3-1.3h9.89a1.31,1.31,0,0,1,1.3,1.3v9l7.58-9.5a2.28,2.28,0,0,1,1.78-.82H361.1a1,1,0,0,1,.74.31,1,1,0,0,1,.31.72,1.05,1.05,0,0,1-.24.7L350.54,23Z"/></g></g></svg>